<mxfile host="app.diagrams.net" agent="Mozilla/5.0 (Windows NT 10.0; Win64; x64) AppleWebKit/537.36 (KHTML, like Gecko) Chrome/131.0.0.0 Safari/537.36" version="26.0.2">
  <diagram name="Page-0" id="Page-0">
    <mxGraphModel dx="1354" dy="668" grid="1" gridSize="10" guides="1" tooltips="1" connect="1" arrows="1" fold="1" page="1" pageScale="1" pageWidth="947.21" pageHeight="664.63" math="0" shadow="0">
      <root>
        <mxCell id="0" />
        <mxCell id="1" parent="0" />
        <mxCell id="GXTbiDGdWHNC-CewPIee-62" value="" style="whiteSpace=wrap;html=1;aspect=fixed;" parent="1" vertex="1">
          <mxGeometry x="74" y="10" width="796" height="796" as="geometry" />
        </mxCell>
        <mxCell id="GXTbiDGdWHNC-CewPIee-15" style="rounded=0;orthogonalLoop=1;jettySize=auto;html=1;entryX=0;entryY=0.5;entryDx=0;entryDy=0;" parent="1" source="GXTbiDGdWHNC-CewPIee-2" target="GXTbiDGdWHNC-CewPIee-4" edge="1">
          <mxGeometry relative="1" as="geometry">
            <Array as="points">
              <mxPoint x="180" y="185" />
            </Array>
          </mxGeometry>
        </mxCell>
        <mxCell id="GXTbiDGdWHNC-CewPIee-26" style="rounded=0;orthogonalLoop=1;jettySize=auto;html=1;entryX=0.5;entryY=1;entryDx=0;entryDy=0;exitX=1;exitY=0.333;exitDx=0;exitDy=0;exitPerimeter=0;" parent="1" source="GXTbiDGdWHNC-CewPIee-2" target="GXTbiDGdWHNC-CewPIee-18" edge="1">
          <mxGeometry relative="1" as="geometry" />
        </mxCell>
        <mxCell id="GXTbiDGdWHNC-CewPIee-49" style="rounded=0;orthogonalLoop=1;jettySize=auto;html=1;exitX=1;exitY=1;exitDx=0;exitDy=0;exitPerimeter=0;entryX=0;entryY=0.5;entryDx=0;entryDy=0;" parent="1" source="GXTbiDGdWHNC-CewPIee-2" target="GXTbiDGdWHNC-CewPIee-44" edge="1">
          <mxGeometry relative="1" as="geometry" />
        </mxCell>
        <mxCell id="GXTbiDGdWHNC-CewPIee-60" style="rounded=0;orthogonalLoop=1;jettySize=auto;html=1;exitX=1;exitY=1;exitDx=0;exitDy=0;exitPerimeter=0;entryX=0;entryY=0.5;entryDx=0;entryDy=0;" parent="1" source="GXTbiDGdWHNC-CewPIee-2" target="GXTbiDGdWHNC-CewPIee-58" edge="1">
          <mxGeometry relative="1" as="geometry">
            <Array as="points">
              <mxPoint x="280" y="640" />
            </Array>
          </mxGeometry>
        </mxCell>
        <mxCell id="GXTbiDGdWHNC-CewPIee-64" style="rounded=0;orthogonalLoop=1;jettySize=auto;html=1;exitX=1;exitY=0.3333333333333333;exitDx=0;exitDy=0;exitPerimeter=0;entryX=0;entryY=0.5;entryDx=0;entryDy=0;" parent="1" source="GXTbiDGdWHNC-CewPIee-2" target="GXTbiDGdWHNC-CewPIee-51" edge="1">
          <mxGeometry relative="1" as="geometry" />
        </mxCell>
        <mxCell id="GXTbiDGdWHNC-CewPIee-2" value="Admin" style="shape=umlActor;verticalLabelPosition=bottom;verticalAlign=top;html=1;" parent="1" vertex="1">
          <mxGeometry x="120" y="305" width="30" height="60" as="geometry" />
        </mxCell>
        <mxCell id="GXTbiDGdWHNC-CewPIee-25" style="rounded=0;orthogonalLoop=1;jettySize=auto;html=1;entryX=1;entryY=0.5;entryDx=0;entryDy=0;" parent="1" source="GXTbiDGdWHNC-CewPIee-3" target="GXTbiDGdWHNC-CewPIee-16" edge="1">
          <mxGeometry relative="1" as="geometry">
            <Array as="points">
              <mxPoint x="820" y="165" />
            </Array>
          </mxGeometry>
        </mxCell>
        <mxCell id="GXTbiDGdWHNC-CewPIee-42" style="rounded=0;orthogonalLoop=1;jettySize=auto;html=1;entryX=1;entryY=1;entryDx=0;entryDy=0;exitX=0;exitY=0.3333333333333333;exitDx=0;exitDy=0;exitPerimeter=0;" parent="1" source="GXTbiDGdWHNC-CewPIee-3" target="GXTbiDGdWHNC-CewPIee-28" edge="1">
          <mxGeometry relative="1" as="geometry">
            <mxPoint x="810" y="319" as="sourcePoint" />
          </mxGeometry>
        </mxCell>
        <mxCell id="GXTbiDGdWHNC-CewPIee-43" style="rounded=0;orthogonalLoop=1;jettySize=auto;html=1;entryX=1;entryY=1;entryDx=0;entryDy=0;exitX=0.5;exitY=0.5;exitDx=0;exitDy=0;exitPerimeter=0;" parent="1" source="GXTbiDGdWHNC-CewPIee-3" target="GXTbiDGdWHNC-CewPIee-37" edge="1">
          <mxGeometry relative="1" as="geometry" />
        </mxCell>
        <mxCell id="GXTbiDGdWHNC-CewPIee-50" style="rounded=0;orthogonalLoop=1;jettySize=auto;html=1;exitX=0;exitY=1;exitDx=0;exitDy=0;exitPerimeter=0;entryX=1;entryY=0.5;entryDx=0;entryDy=0;" parent="1" source="GXTbiDGdWHNC-CewPIee-3" target="GXTbiDGdWHNC-CewPIee-44" edge="1">
          <mxGeometry relative="1" as="geometry" />
        </mxCell>
        <mxCell id="GXTbiDGdWHNC-CewPIee-59" style="rounded=0;orthogonalLoop=1;jettySize=auto;html=1;exitX=0;exitY=1;exitDx=0;exitDy=0;exitPerimeter=0;entryX=1;entryY=0.5;entryDx=0;entryDy=0;" parent="1" source="GXTbiDGdWHNC-CewPIee-3" target="GXTbiDGdWHNC-CewPIee-58" edge="1">
          <mxGeometry relative="1" as="geometry">
            <Array as="points">
              <mxPoint x="680" y="640" />
            </Array>
          </mxGeometry>
        </mxCell>
        <mxCell id="GXTbiDGdWHNC-CewPIee-65" style="rounded=0;orthogonalLoop=1;jettySize=auto;html=1;exitX=0;exitY=0.3333333333333333;exitDx=0;exitDy=0;exitPerimeter=0;entryX=1;entryY=0.5;entryDx=0;entryDy=0;" parent="1" source="GXTbiDGdWHNC-CewPIee-3" target="GXTbiDGdWHNC-CewPIee-51" edge="1">
          <mxGeometry relative="1" as="geometry">
            <Array as="points">
              <mxPoint x="540" y="375" />
            </Array>
          </mxGeometry>
        </mxCell>
        <mxCell id="GXTbiDGdWHNC-CewPIee-3" value="User&lt;div&gt;&lt;br&gt;&lt;/div&gt;" style="shape=umlActor;verticalLabelPosition=bottom;verticalAlign=top;html=1;" parent="1" vertex="1">
          <mxGeometry x="810" y="307" width="30" height="60" as="geometry" />
        </mxCell>
        <mxCell id="GXTbiDGdWHNC-CewPIee-4" value="Mengelola akun user" style="ellipse;whiteSpace=wrap;html=1;" parent="1" vertex="1">
          <mxGeometry x="306" y="110" width="134" height="50" as="geometry" />
        </mxCell>
        <mxCell id="GXTbiDGdWHNC-CewPIee-11" style="rounded=0;orthogonalLoop=1;jettySize=auto;html=1;entryX=0;entryY=1;entryDx=0;entryDy=0;" parent="1" source="GXTbiDGdWHNC-CewPIee-5" target="GXTbiDGdWHNC-CewPIee-4" edge="1">
          <mxGeometry relative="1" as="geometry" />
        </mxCell>
        <mxCell id="GXTbiDGdWHNC-CewPIee-5" value="Delete" style="ellipse;whiteSpace=wrap;html=1;" parent="1" vertex="1">
          <mxGeometry x="233" y="170" width="66.67" height="20" as="geometry" />
        </mxCell>
        <mxCell id="GXTbiDGdWHNC-CewPIee-6" value="Update" style="ellipse;whiteSpace=wrap;html=1;" parent="1" vertex="1">
          <mxGeometry x="299" y="194" width="60" height="20" as="geometry" />
        </mxCell>
        <mxCell id="GXTbiDGdWHNC-CewPIee-7" value="Create" style="ellipse;whiteSpace=wrap;html=1;" parent="1" vertex="1">
          <mxGeometry x="387" y="195" width="66.67" height="20" as="geometry" />
        </mxCell>
        <mxCell id="GXTbiDGdWHNC-CewPIee-14" style="rounded=0;orthogonalLoop=1;jettySize=auto;html=1;entryX=1;entryY=1;entryDx=0;entryDy=0;" parent="1" source="GXTbiDGdWHNC-CewPIee-8" target="GXTbiDGdWHNC-CewPIee-4" edge="1">
          <mxGeometry relative="1" as="geometry" />
        </mxCell>
        <mxCell id="GXTbiDGdWHNC-CewPIee-8" value="Read" style="ellipse;whiteSpace=wrap;html=1;" parent="1" vertex="1">
          <mxGeometry x="420" y="166" width="70" height="20" as="geometry" />
        </mxCell>
        <mxCell id="GXTbiDGdWHNC-CewPIee-12" style="rounded=0;orthogonalLoop=1;jettySize=auto;html=1;entryX=0.394;entryY=0.963;entryDx=0;entryDy=0;entryPerimeter=0;" parent="1" source="GXTbiDGdWHNC-CewPIee-6" target="GXTbiDGdWHNC-CewPIee-4" edge="1">
          <mxGeometry relative="1" as="geometry" />
        </mxCell>
        <mxCell id="GXTbiDGdWHNC-CewPIee-13" style="rounded=0;orthogonalLoop=1;jettySize=auto;html=1;entryX=0.622;entryY=0.971;entryDx=0;entryDy=0;entryPerimeter=0;" parent="1" source="GXTbiDGdWHNC-CewPIee-7" target="GXTbiDGdWHNC-CewPIee-4" edge="1">
          <mxGeometry relative="1" as="geometry" />
        </mxCell>
        <mxCell id="GXTbiDGdWHNC-CewPIee-16" value="Mengelola data barang" style="ellipse;whiteSpace=wrap;html=1;" parent="1" vertex="1">
          <mxGeometry x="613" y="110" width="147" height="56" as="geometry" />
        </mxCell>
        <mxCell id="GXTbiDGdWHNC-CewPIee-17" style="rounded=0;orthogonalLoop=1;jettySize=auto;html=1;entryX=0;entryY=1;entryDx=0;entryDy=0;" parent="1" source="GXTbiDGdWHNC-CewPIee-18" target="GXTbiDGdWHNC-CewPIee-16" edge="1">
          <mxGeometry relative="1" as="geometry" />
        </mxCell>
        <mxCell id="GXTbiDGdWHNC-CewPIee-18" value="Read" style="ellipse;whiteSpace=wrap;html=1;" parent="1" vertex="1">
          <mxGeometry x="529" y="165" width="66.67" height="20" as="geometry" />
        </mxCell>
        <mxCell id="GXTbiDGdWHNC-CewPIee-19" value="Update" style="ellipse;whiteSpace=wrap;html=1;" parent="1" vertex="1">
          <mxGeometry x="606" y="200" width="60" height="20" as="geometry" />
        </mxCell>
        <mxCell id="GXTbiDGdWHNC-CewPIee-20" value="Create" style="ellipse;whiteSpace=wrap;html=1;" parent="1" vertex="1">
          <mxGeometry x="672" y="201" width="66.67" height="20" as="geometry" />
        </mxCell>
        <mxCell id="GXTbiDGdWHNC-CewPIee-21" style="rounded=0;orthogonalLoop=1;jettySize=auto;html=1;entryX=1;entryY=1;entryDx=0;entryDy=0;" parent="1" source="GXTbiDGdWHNC-CewPIee-22" target="GXTbiDGdWHNC-CewPIee-16" edge="1">
          <mxGeometry relative="1" as="geometry" />
        </mxCell>
        <mxCell id="GXTbiDGdWHNC-CewPIee-22" value="Delete" style="ellipse;whiteSpace=wrap;html=1;" parent="1" vertex="1">
          <mxGeometry x="727" y="172" width="70" height="20" as="geometry" />
        </mxCell>
        <mxCell id="GXTbiDGdWHNC-CewPIee-23" style="rounded=0;orthogonalLoop=1;jettySize=auto;html=1;entryX=0.394;entryY=0.963;entryDx=0;entryDy=0;entryPerimeter=0;" parent="1" source="GXTbiDGdWHNC-CewPIee-19" target="GXTbiDGdWHNC-CewPIee-16" edge="1">
          <mxGeometry relative="1" as="geometry" />
        </mxCell>
        <mxCell id="GXTbiDGdWHNC-CewPIee-24" style="rounded=0;orthogonalLoop=1;jettySize=auto;html=1;entryX=0.622;entryY=0.971;entryDx=0;entryDy=0;entryPerimeter=0;" parent="1" source="GXTbiDGdWHNC-CewPIee-20" target="GXTbiDGdWHNC-CewPIee-16" edge="1">
          <mxGeometry relative="1" as="geometry" />
        </mxCell>
        <mxCell id="GXTbiDGdWHNC-CewPIee-28" value="Menjual Barang" style="ellipse;whiteSpace=wrap;html=1;" parent="1" vertex="1">
          <mxGeometry x="690" y="270" width="120" height="35" as="geometry" />
        </mxCell>
        <mxCell id="GXTbiDGdWHNC-CewPIee-37" value="Membeli Barang" style="ellipse;whiteSpace=wrap;html=1;" parent="1" vertex="1">
          <mxGeometry x="534" y="259" width="120" height="35" as="geometry" />
        </mxCell>
        <mxCell id="GXTbiDGdWHNC-CewPIee-44" value="Melihat data transaksi" style="ellipse;whiteSpace=wrap;html=1;" parent="1" vertex="1">
          <mxGeometry x="480" y="550" width="140" height="50" as="geometry" />
        </mxCell>
        <mxCell id="GXTbiDGdWHNC-CewPIee-47" value="&amp;lt;&amp;lt;include&amp;gt;&amp;gt;" style="html=1;verticalAlign=bottom;labelBackgroundColor=none;endArrow=open;endFill=0;dashed=1;rounded=0;entryX=0.5;entryY=1;entryDx=0;entryDy=0;exitX=0.5;exitY=0;exitDx=0;exitDy=0;" parent="1" source="GXTbiDGdWHNC-CewPIee-28" target="GXTbiDGdWHNC-CewPIee-20" edge="1">
          <mxGeometry width="160" relative="1" as="geometry">
            <mxPoint x="340" y="305" as="sourcePoint" />
            <mxPoint x="500" y="305" as="targetPoint" />
          </mxGeometry>
        </mxCell>
        <mxCell id="GXTbiDGdWHNC-CewPIee-48" value="&amp;lt;&amp;lt;include&amp;gt;&amp;gt;" style="html=1;verticalAlign=bottom;labelBackgroundColor=none;endArrow=open;endFill=0;dashed=1;rounded=0;entryX=0.5;entryY=1;entryDx=0;entryDy=0;exitX=0.5;exitY=0;exitDx=0;exitDy=0;" parent="1" source="GXTbiDGdWHNC-CewPIee-37" target="GXTbiDGdWHNC-CewPIee-20" edge="1">
          <mxGeometry width="160" relative="1" as="geometry">
            <mxPoint x="600" y="445" as="sourcePoint" />
            <mxPoint x="715" y="231" as="targetPoint" />
          </mxGeometry>
        </mxCell>
        <mxCell id="GXTbiDGdWHNC-CewPIee-51" value="Login" style="ellipse;whiteSpace=wrap;html=1;" parent="1" vertex="1">
          <mxGeometry x="306" y="340" width="140" height="70" as="geometry" />
        </mxCell>
        <mxCell id="GXTbiDGdWHNC-CewPIee-52" value="&amp;lt;&amp;lt;include&amp;gt;&amp;gt;" style="html=1;verticalAlign=bottom;labelBackgroundColor=none;endArrow=open;endFill=0;dashed=1;rounded=0;entryX=0.5;entryY=1;entryDx=0;entryDy=0;exitX=0.5;exitY=0;exitDx=0;exitDy=0;" parent="1" source="GXTbiDGdWHNC-CewPIee-44" target="GXTbiDGdWHNC-CewPIee-51" edge="1">
          <mxGeometry width="160" relative="1" as="geometry">
            <mxPoint x="340" y="305" as="sourcePoint" />
            <mxPoint x="500" y="305" as="targetPoint" />
          </mxGeometry>
        </mxCell>
        <mxCell id="GXTbiDGdWHNC-CewPIee-53" value="&amp;lt;&amp;lt;include&amp;gt;&amp;gt;" style="html=1;verticalAlign=bottom;labelBackgroundColor=none;endArrow=open;endFill=0;dashed=1;rounded=0;exitX=0.5;exitY=1;exitDx=0;exitDy=0;entryX=0.5;entryY=0;entryDx=0;entryDy=0;" parent="1" source="GXTbiDGdWHNC-CewPIee-4" target="GXTbiDGdWHNC-CewPIee-51" edge="1">
          <mxGeometry width="160" relative="1" as="geometry">
            <mxPoint x="340" y="305" as="sourcePoint" />
            <mxPoint x="500" y="305" as="targetPoint" />
          </mxGeometry>
        </mxCell>
        <mxCell id="GXTbiDGdWHNC-CewPIee-55" value="&amp;lt;&amp;lt;include&amp;gt;&amp;gt;" style="html=1;verticalAlign=bottom;labelBackgroundColor=none;endArrow=open;endFill=0;dashed=1;rounded=0;exitX=0;exitY=1;exitDx=0;exitDy=0;entryX=0.5;entryY=0;entryDx=0;entryDy=0;" parent="1" source="GXTbiDGdWHNC-CewPIee-16" target="GXTbiDGdWHNC-CewPIee-51" edge="1">
          <mxGeometry width="160" relative="1" as="geometry">
            <mxPoint x="340" y="305" as="sourcePoint" />
            <mxPoint x="500" y="305" as="targetPoint" />
          </mxGeometry>
        </mxCell>
        <mxCell id="GXTbiDGdWHNC-CewPIee-56" value="&amp;lt;&amp;lt;include&amp;gt;&amp;gt;" style="html=1;verticalAlign=bottom;labelBackgroundColor=none;endArrow=open;endFill=0;dashed=1;rounded=0;exitX=0.5;exitY=1;exitDx=0;exitDy=0;entryX=1;entryY=0.5;entryDx=0;entryDy=0;" parent="1" source="GXTbiDGdWHNC-CewPIee-37" target="GXTbiDGdWHNC-CewPIee-51" edge="1">
          <mxGeometry width="160" relative="1" as="geometry">
            <mxPoint x="340" y="305" as="sourcePoint" />
            <mxPoint x="500" y="305" as="targetPoint" />
          </mxGeometry>
        </mxCell>
        <mxCell id="GXTbiDGdWHNC-CewPIee-57" value="&amp;lt;&amp;lt;include&amp;gt;&amp;gt;" style="html=1;verticalAlign=bottom;labelBackgroundColor=none;endArrow=open;endFill=0;dashed=1;rounded=0;exitX=0.5;exitY=1;exitDx=0;exitDy=0;entryX=1;entryY=0.5;entryDx=0;entryDy=0;" parent="1" source="GXTbiDGdWHNC-CewPIee-28" target="GXTbiDGdWHNC-CewPIee-51" edge="1">
          <mxGeometry width="160" relative="1" as="geometry">
            <mxPoint x="340" y="305" as="sourcePoint" />
            <mxPoint x="500" y="305" as="targetPoint" />
          </mxGeometry>
        </mxCell>
        <mxCell id="GXTbiDGdWHNC-CewPIee-58" value="Mencetak Data Barang / Transaksi" style="ellipse;whiteSpace=wrap;html=1;" parent="1" vertex="1">
          <mxGeometry x="402" y="660" width="144" height="60" as="geometry" />
        </mxCell>
        <mxCell id="GXTbiDGdWHNC-CewPIee-61" value="&amp;lt;&amp;lt;include&amp;gt;&amp;gt;" style="html=1;verticalAlign=bottom;labelBackgroundColor=none;endArrow=open;endFill=0;dashed=1;rounded=0;exitX=0.5;exitY=0;exitDx=0;exitDy=0;entryX=0.5;entryY=1;entryDx=0;entryDy=0;" parent="1" source="GXTbiDGdWHNC-CewPIee-58" target="GXTbiDGdWHNC-CewPIee-51" edge="1">
          <mxGeometry width="160" relative="1" as="geometry">
            <mxPoint x="340" y="425" as="sourcePoint" />
            <mxPoint x="500" y="425" as="targetPoint" />
          </mxGeometry>
        </mxCell>
        <mxCell id="GXTbiDGdWHNC-CewPIee-63" value="Use Case Inventory Barang" style="text;html=1;align=center;verticalAlign=middle;resizable=0;points=[];autosize=1;strokeColor=none;fillColor=none;fontStyle=1;fontSize=17;" parent="1" vertex="1">
          <mxGeometry x="365.67" y="10" width="230" height="30" as="geometry" />
        </mxCell>
      </root>
    </mxGraphModel>
  </diagram>
</mxfile>
